# xmcd CD database file
#
# Track frame offsets:
#	150
#	27157
#	66120
#
# Disc length: 1238 seconds
#
# Revision: 0
# Processed by: cddbd v1.4b42PL1 Copyright (c) Steve Scherf et al.
# Submitted via: CD2WAV32(EN) R3.19
#
DISCID=1e04d403
DTITLE=KAN - MAN
DYEAR=1900
DGENRE=
TTITLE0=MAN
TTITLE1=zoku raibaru
TTITLE2=MAN without vocal
EXTD=
EXTT0=
EXTT1=
EXTT2=
PLAYORDER=
